<svg xmlns="http://www.w3.org/2000/svg" xmlns:xlink="http://www.w3.org/1999/xlink" width="1080" zoomAndPan="magnify" viewBox="0 0 810 809.999993" height="1080" preserveAspectRatio="xMidYMid meet" version="1.0"><defs><clipPath id="026f19685e"><path d="M 7.757812 7.757812 L 810 7.757812 L 810 810 L 7.757812 810 Z M 7.757812 7.757812 " clip-rule="nonzero"/></clipPath></defs><g clip-path="url(#026f19685e)"><path fill="#100f0d" d="M 783.507812 250.800781 C 767.9375 256.316406 756.757812 271.195312 756.757812 288.632812 C 756.757812 306.070312 767.9375 320.945312 783.507812 326.464844 L 783.507812 357.800781 C 767.9375 363.316406 756.757812 378.195312 756.757812 395.632812 C 756.757812 413.070312 767.9375 427.945312 783.507812 433.464844 L 783.507812 464.800781 C 767.9375 470.316406 756.757812 485.195312 756.757812 502.632812 C 756.757812 520.070312 767.9375 534.945312 783.507812 540.464844 L 783.507812 571.800781 C 767.9375 577.316406 756.757812 592.195312 756.757812 609.632812 C 756.757812 627.070312 767.9375 641.945312 783.507812 647.464844 L 783.507812 678.800781 C 767.9375 684.316406 756.757812 699.195312 756.757812 716.632812 C 756.757812 734.070312 767.9375 748.945312 783.507812 754.464844 L 783.507812 783.507812 L 754.464844 783.507812 C 748.945312 767.9375 734.070312 756.757812 716.632812 756.757812 C 699.195312 756.757812 684.316406 767.9375 678.800781 783.507812 L 647.464844 783.507812 C 641.945312 767.9375 627.070312 756.757812 609.632812 756.757812 C 592.195312 756.757812 577.316406 767.9375 571.800781 783.507812 L 540.464844 783.507812 C 534.945312 767.9375 520.070312 756.757812 502.632812 756.757812 C 485.195312 756.757812 470.316406 767.9375 464.800781 783.507812 L 433.464844 783.507812 C 427.945312 767.9375 413.070312 756.757812 395.632812 756.757812 C 378.195312 756.757812 363.316406 767.9375 357.800781 783.507812 L 328.757812 783.507812 L 328.757812 754.464844 C 344.324219 748.945312 355.507812 734.070312 355.507812 716.632812 C 355.507812 699.195312 344.324219 684.316406 328.757812 678.800781 L 328.757812 647.464844 C 344.324219 641.945312 355.507812 627.070312 355.507812 609.632812 C 355.507812 592.195312 344.324219 577.316406 328.757812 571.800781 L 328.757812 540.464844 C 344.324219 534.945312 355.507812 520.070312 355.507812 502.632812 C 355.507812 485.195312 344.324219 470.316406 328.757812 464.800781 L 328.757812 433.464844 C 344.324219 427.945312 355.507812 413.070312 355.507812 395.632812 C 355.507812 378.195312 344.324219 363.316406 328.757812 357.800781 L 328.757812 326.464844 C 344.324219 320.945312 355.507812 306.070312 355.507812 288.632812 C 355.507812 271.195312 344.324219 256.316406 328.757812 250.800781 L 328.757812 221.757812 L 357.800781 221.757812 C 363.316406 237.324219 378.195312 248.507812 395.632812 248.507812 C 413.070312 248.507812 427.945312 237.324219 433.464844 221.757812 L 464.800781 221.757812 C 470.316406 237.324219 485.195312 248.507812 502.632812 248.507812 C 520.070312 248.507812 534.945312 237.324219 540.464844 221.757812 L 571.800781 221.757812 C 577.316406 237.324219 592.195312 248.507812 609.632812 248.507812 C 627.070312 248.507812 641.945312 237.324219 647.464844 221.757812 L 678.800781 221.757812 C 684.316406 237.324219 699.195312 248.507812 716.632812 248.507812 C 734.070312 248.507812 748.945312 237.324219 754.464844 221.757812 L 783.507812 221.757812 Z M 315.382812 302.007812 C 307.996094 302.007812 302.007812 307.996094 302.007812 315.382812 L 302.007812 360.03125 C 285.367188 370.722656 269.417969 378 261.816406 381.226562 C 231.8125 368.796875 168.257812 333.222656 168.257812 288.632812 C 168.257812 266.503906 186.253906 248.507812 208.382812 248.507812 C 230.507812 248.507812 248.507812 266.503906 248.507812 288.632812 C 248.507812 296.019531 254.496094 302.007812 261.882812 302.007812 C 269.269531 302.007812 275.257812 296.019531 275.257812 288.632812 C 275.257812 271.195312 286.4375 256.332031 302.007812 250.804688 L 302.007812 261.882812 C 302.007812 269.269531 307.996094 275.257812 315.382812 275.257812 C 322.753906 275.257812 328.757812 281.257812 328.757812 288.632812 C 328.757812 296.003906 322.753906 302.007812 315.382812 302.007812 Z M 315.382812 516.007812 L 114.757812 516.007812 L 114.757812 114.757812 L 409.007812 114.757812 L 409.007812 208.382812 C 409.007812 215.753906 403.003906 221.757812 395.632812 221.757812 C 388.257812 221.757812 382.257812 215.753906 382.257812 208.382812 C 382.257812 200.996094 376.269531 195.007812 368.882812 195.007812 L 315.382812 195.007812 C 307.996094 195.007812 302.007812 200.996094 302.007812 208.382812 L 302.007812 223.128906 C 285.707031 226.453125 271.535156 235.699219 261.882812 248.546875 C 249.667969 232.289062 230.234375 221.757812 208.382812 221.757812 C 171.507812 221.757812 141.507812 251.757812 141.507812 288.632812 C 141.507812 363.910156 252.464844 406.382812 257.1875 408.15625 C 258.703125 408.71875 260.289062 409.007812 261.882812 409.007812 C 263.476562 409.007812 265.0625 408.71875 266.578125 408.15625 C 267.648438 407.753906 291.25 398.8125 316.792969 382.335938 C 323.507812 383.039062 328.757812 388.734375 328.757812 395.632812 C 328.757812 403.003906 322.753906 409.007812 315.382812 409.007812 C 307.996094 409.007812 302.007812 414.996094 302.007812 422.382812 L 302.007812 475.882812 C 302.007812 483.269531 307.996094 489.257812 315.382812 489.257812 C 322.753906 489.257812 328.757812 495.257812 328.757812 502.632812 C 328.757812 510.003906 322.753906 516.007812 315.382812 516.007812 Z M 277.542969 596.257812 L 246.214844 596.257812 C 240.695312 580.6875 225.820312 569.507812 208.382812 569.507812 C 190.945312 569.507812 176.066406 580.6875 170.550781 596.257812 L 139.214844 596.257812 C 133.695312 580.6875 118.820312 569.507812 101.382812 569.507812 C 83.945312 569.507812 69.066406 580.6875 63.550781 596.257812 L 34.507812 596.257812 L 34.507812 567.214844 C 50.074219 561.695312 61.257812 546.820312 61.257812 529.382812 C 61.257812 511.945312 50.074219 497.066406 34.507812 491.550781 L 34.507812 460.214844 C 50.074219 454.695312 61.257812 439.820312 61.257812 422.382812 C 61.257812 404.945312 50.074219 390.066406 34.507812 384.550781 L 34.507812 353.214844 C 50.074219 347.695312 61.257812 332.820312 61.257812 315.382812 C 61.257812 297.945312 50.074219 283.066406 34.507812 277.550781 L 34.507812 246.214844 C 50.074219 240.695312 61.257812 225.820312 61.257812 208.382812 C 61.257812 190.945312 50.074219 176.066406 34.507812 170.550781 L 34.507812 139.214844 C 50.074219 133.695312 61.257812 118.820312 61.257812 101.382812 C 61.257812 83.945312 50.074219 69.066406 34.507812 63.550781 L 34.507812 34.507812 L 63.550781 34.507812 C 69.066406 50.074219 83.945312 61.257812 101.382812 61.257812 C 118.820312 61.257812 133.695312 50.074219 139.214844 34.507812 L 170.550781 34.507812 C 176.066406 50.074219 190.945312 61.257812 208.382812 61.257812 C 225.820312 61.257812 240.695312 50.074219 246.214844 34.507812 L 277.550781 34.507812 C 283.066406 50.074219 297.945312 61.257812 315.382812 61.257812 C 332.820312 61.257812 347.695312 50.074219 353.214844 34.507812 L 384.550781 34.507812 C 390.066406 50.074219 404.945312 61.257812 422.382812 61.257812 C 439.820312 61.257812 454.695312 50.074219 460.214844 34.507812 L 489.257812 34.507812 L 489.257812 63.550781 C 473.6875 69.066406 462.507812 83.945312 462.507812 101.382812 C 462.507812 118.820312 473.6875 133.695312 489.257812 139.214844 L 489.257812 170.550781 C 477.875 174.585938 468.867188 183.628906 464.824219 195.007812 L 435.757812 195.007812 L 435.757812 101.382812 C 435.757812 93.996094 429.769531 88.007812 422.382812 88.007812 L 101.382812 88.007812 C 93.996094 88.007812 88.007812 93.996094 88.007812 101.382812 L 88.007812 529.382812 C 88.007812 536.769531 93.996094 542.757812 101.382812 542.757812 L 302.007812 542.757812 L 302.007812 571.804688 C 290.421875 575.894531 281.527344 584.992188 277.542969 596.257812 Z M 796.882812 195.007812 L 743.382812 195.007812 C 735.996094 195.007812 730.007812 200.996094 730.007812 208.382812 C 730.007812 215.753906 724.003906 221.757812 716.632812 221.757812 C 709.257812 221.757812 703.257812 215.753906 703.257812 208.382812 C 703.257812 200.996094 697.269531 195.007812 689.882812 195.007812 L 636.382812 195.007812 C 628.996094 195.007812 623.007812 200.996094 623.007812 208.382812 C 623.007812 215.753906 617.003906 221.757812 609.632812 221.757812 C 602.257812 221.757812 596.257812 215.753906 596.257812 208.382812 C 596.257812 200.996094 590.269531 195.007812 582.882812 195.007812 L 529.382812 195.007812 C 521.996094 195.007812 516.007812 200.996094 516.007812 208.382812 C 516.007812 215.753906 510.003906 221.757812 502.632812 221.757812 C 495.257812 221.757812 489.257812 215.753906 489.257812 208.382812 C 489.257812 201.007812 495.257812 195.007812 502.632812 195.007812 C 510.019531 195.007812 516.007812 189.019531 516.007812 181.632812 L 516.007812 128.132812 C 516.007812 120.746094 510.019531 114.757812 502.632812 114.757812 C 495.257812 114.757812 489.257812 108.753906 489.257812 101.382812 C 489.257812 94.007812 495.257812 88.007812 502.632812 88.007812 C 510.019531 88.007812 516.007812 82.019531 516.007812 74.632812 L 516.007812 21.132812 C 516.007812 13.746094 510.019531 7.757812 502.632812 7.757812 L 449.132812 7.757812 C 441.746094 7.757812 435.757812 13.746094 435.757812 21.132812 C 435.757812 28.503906 429.753906 34.507812 422.382812 34.507812 C 415.007812 34.507812 409.007812 28.503906 409.007812 21.132812 C 409.007812 13.746094 403.019531 7.757812 395.632812 7.757812 L 342.132812 7.757812 C 334.746094 7.757812 328.757812 13.746094 328.757812 21.132812 C 328.757812 28.503906 322.753906 34.507812 315.382812 34.507812 C 308.007812 34.507812 302.007812 28.503906 302.007812 21.132812 C 302.007812 13.746094 296.019531 7.757812 288.632812 7.757812 L 235.132812 7.757812 C 227.746094 7.757812 221.757812 13.746094 221.757812 21.132812 C 221.757812 28.503906 215.753906 34.507812 208.382812 34.507812 C 201.007812 34.507812 195.007812 28.503906 195.007812 21.132812 C 195.007812 13.746094 189.019531 7.757812 181.632812 7.757812 L 128.132812 7.757812 C 120.746094 7.757812 114.757812 13.746094 114.757812 21.132812 C 114.757812 28.503906 108.753906 34.507812 101.382812 34.507812 C 94.007812 34.507812 88.007812 28.503906 88.007812 21.132812 C 88.007812 13.746094 82.019531 7.757812 74.632812 7.757812 L 21.132812 7.757812 C 13.746094 7.757812 7.757812 13.746094 7.757812 21.132812 L 7.757812 74.632812 C 7.757812 82.019531 13.746094 88.007812 21.132812 88.007812 C 28.503906 88.007812 34.507812 94.007812 34.507812 101.382812 C 34.507812 108.753906 28.503906 114.757812 21.132812 114.757812 C 13.746094 114.757812 7.757812 120.746094 7.757812 128.132812 L 7.757812 181.632812 C 7.757812 189.019531 13.746094 195.007812 21.132812 195.007812 C 28.503906 195.007812 34.507812 201.007812 34.507812 208.382812 C 34.507812 215.753906 28.503906 221.757812 21.132812 221.757812 C 13.746094 221.757812 7.757812 227.746094 7.757812 235.132812 L 7.757812 288.632812 C 7.757812 296.019531 13.746094 302.007812 21.132812 302.007812 C 28.503906 302.007812 34.507812 308.007812 34.507812 315.382812 C 34.507812 322.753906 28.503906 328.757812 21.132812 328.757812 C 13.746094 328.757812 7.757812 334.746094 7.757812 342.132812 L 7.757812 395.632812 C 7.757812 403.019531 13.746094 409.007812 21.132812 409.007812 C 28.503906 409.007812 34.507812 415.007812 34.507812 422.382812 C 34.507812 429.753906 28.503906 435.757812 21.132812 435.757812 C 13.746094 435.757812 7.757812 441.746094 7.757812 449.132812 L 7.757812 502.632812 C 7.757812 510.019531 13.746094 516.007812 21.132812 516.007812 C 28.503906 516.007812 34.507812 522.007812 34.507812 529.382812 C 34.507812 536.753906 28.503906 542.757812 21.132812 542.757812 C 13.746094 542.757812 7.757812 548.746094 7.757812 556.132812 L 7.757812 609.632812 C 7.757812 617.019531 13.746094 623.007812 21.132812 623.007812 L 74.632812 623.007812 C 82.019531 623.007812 88.007812 617.019531 88.007812 609.632812 C 88.007812 602.257812 94.007812 596.257812 101.382812 596.257812 C 108.753906 596.257812 114.757812 602.257812 114.757812 609.632812 C 114.757812 617.019531 120.746094 623.007812 128.132812 623.007812 L 181.632812 623.007812 C 189.019531 623.007812 195.007812 617.019531 195.007812 609.632812 C 195.007812 602.257812 201.007812 596.257812 208.382812 596.257812 C 215.753906 596.257812 221.757812 602.257812 221.757812 609.632812 C 221.757812 617.019531 227.746094 623.007812 235.132812 623.007812 L 288.632812 623.007812 C 296.019531 623.007812 302.007812 617.019531 302.007812 609.632812 C 302.007812 603.527344 306.128906 598.191406 312.03125 596.667969 L 311.796875 595.753906 C 312.9375 596.074219 314.140625 596.257812 315.382812 596.257812 C 322.753906 596.257812 328.757812 602.257812 328.757812 609.632812 C 328.757812 617.003906 322.753906 623.007812 315.382812 623.007812 C 307.996094 623.007812 302.007812 628.996094 302.007812 636.382812 L 302.007812 689.882812 C 302.007812 697.269531 307.996094 703.257812 315.382812 703.257812 C 322.753906 703.257812 328.757812 709.257812 328.757812 716.632812 C 328.757812 724.003906 322.753906 730.007812 315.382812 730.007812 C 307.996094 730.007812 302.007812 735.996094 302.007812 743.382812 L 302.007812 796.882812 C 302.007812 804.269531 307.996094 810.257812 315.382812 810.257812 L 368.882812 810.257812 C 376.269531 810.257812 382.257812 804.269531 382.257812 796.882812 C 382.257812 789.507812 388.257812 783.507812 395.632812 783.507812 C 403.003906 783.507812 409.007812 789.507812 409.007812 796.882812 C 409.007812 804.269531 414.996094 810.257812 422.382812 810.257812 L 475.882812 810.257812 C 483.269531 810.257812 489.257812 804.269531 489.257812 796.882812 C 489.257812 789.507812 495.257812 783.507812 502.632812 783.507812 C 510.003906 783.507812 516.007812 789.507812 516.007812 796.882812 C 516.007812 804.269531 521.996094 810.257812 529.382812 810.257812 L 582.882812 810.257812 C 590.269531 810.257812 596.257812 804.269531 596.257812 796.882812 C 596.257812 789.507812 602.257812 783.507812 609.632812 783.507812 C 617.003906 783.507812 623.007812 789.507812 623.007812 796.882812 C 623.007812 804.269531 628.996094 810.257812 636.382812 810.257812 L 689.882812 810.257812 C 697.269531 810.257812 703.257812 804.269531 703.257812 796.882812 C 703.257812 789.507812 709.257812 783.507812 716.632812 783.507812 C 724.003906 783.507812 730.007812 789.507812 730.007812 796.882812 C 730.007812 804.269531 735.996094 810.257812 743.382812 810.257812 L 796.882812 810.257812 C 804.269531 810.257812 810.257812 804.269531 810.257812 796.882812 L 810.257812 743.382812 C 810.257812 735.996094 804.269531 730.007812 796.882812 730.007812 C 789.507812 730.007812 783.507812 724.003906 783.507812 716.632812 C 783.507812 709.257812 789.507812 703.257812 796.882812 703.257812 C 804.269531 703.257812 810.257812 697.269531 810.257812 689.882812 L 810.257812 636.382812 C 810.257812 628.996094 804.269531 623.007812 796.882812 623.007812 C 789.507812 623.007812 783.507812 617.003906 783.507812 609.632812 C 783.507812 602.257812 789.507812 596.257812 796.882812 596.257812 C 804.269531 596.257812 810.257812 590.269531 810.257812 582.882812 L 810.257812 529.382812 C 810.257812 521.996094 804.269531 516.007812 796.882812 516.007812 C 789.507812 516.007812 783.507812 510.003906 783.507812 502.632812 C 783.507812 495.257812 789.507812 489.257812 796.882812 489.257812 C 804.269531 489.257812 810.257812 483.269531 810.257812 475.882812 L 810.257812 422.382812 C 810.257812 414.996094 804.269531 409.007812 796.882812 409.007812 C 789.507812 409.007812 783.507812 403.003906 783.507812 395.632812 C 783.507812 388.257812 789.507812 382.257812 796.882812 382.257812 C 804.269531 382.257812 810.257812 376.269531 810.257812 368.882812 L 810.257812 315.382812 C 810.257812 307.996094 804.269531 302.007812 796.882812 302.007812 C 789.507812 302.007812 783.507812 296.003906 783.507812 288.632812 C 783.507812 281.257812 789.507812 275.257812 796.882812 275.257812 C 804.269531 275.257812 810.257812 269.269531 810.257812 261.882812 L 810.257812 208.382812 C 810.257812 200.996094 804.269531 195.007812 796.882812 195.007812 " fill-opacity="1" fill-rule="nonzero"/></g><path fill="#100f0d" d="M 456.316406 703.257812 L 623.386719 547.320312 L 703.257812 615.785156 L 703.257812 703.257812 Z M 409.007812 615.167969 L 449.132812 575.042969 L 499.988281 625.898438 L 417.113281 703.257812 L 409.007812 703.257812 Z M 703.257812 302.007812 L 703.257812 580.550781 L 631.710938 519.226562 C 626.539062 514.792969 618.859375 514.957031 613.875 519.605469 L 519.554688 607.640625 L 458.589844 546.675781 C 453.363281 541.449219 444.898438 541.449219 439.675781 546.675781 L 409.007812 577.34375 L 409.007812 302.007812 Z M 716.632812 275.257812 L 395.632812 275.257812 C 388.246094 275.257812 382.257812 281.246094 382.257812 288.632812 L 382.257812 716.632812 C 382.257812 724.019531 388.246094 730.007812 395.632812 730.007812 L 716.632812 730.007812 C 724.019531 730.007812 730.007812 724.019531 730.007812 716.632812 L 730.007812 288.632812 C 730.007812 281.246094 724.019531 275.257812 716.632812 275.257812 " fill-opacity="1" fill-rule="nonzero"/><path fill="#100f0d" d="M 596.257812 382.257812 C 611.003906 382.257812 623.007812 394.261719 623.007812 409.007812 C 623.007812 423.753906 611.003906 435.757812 596.257812 435.757812 C 581.511719 435.757812 569.507812 423.753906 569.507812 409.007812 C 569.507812 394.261719 581.511719 382.257812 596.257812 382.257812 Z M 596.257812 462.507812 C 625.757812 462.507812 649.757812 438.507812 649.757812 409.007812 C 649.757812 379.507812 625.757812 355.507812 596.257812 355.507812 C 566.757812 355.507812 542.757812 379.507812 542.757812 409.007812 C 542.757812 438.507812 566.757812 462.507812 596.257812 462.507812 " fill-opacity="1" fill-rule="nonzero"/></svg>