<svg xmlns="http://www.w3.org/2000/svg" xmlns:xlink="http://www.w3.org/1999/xlink" width="1080" zoomAndPan="magnify" viewBox="0 0 810 809.999993" height="1080" preserveAspectRatio="xMidYMid meet" version="1.0"><defs><clipPath id="2d252d2053"><path d="M 7.757812 7.757812 L 810 7.757812 L 810 810 L 7.757812 810 Z M 7.757812 7.757812 " clip-rule="nonzero"/></clipPath></defs><g clip-path="url(#2d252d2053)"><path fill="#c6a619" d="M 783.257812 250.722656 C 767.691406 256.238281 756.515625 271.109375 756.515625 288.542969 C 756.515625 305.972656 767.691406 320.84375 783.257812 326.363281 L 783.257812 357.6875 C 767.691406 363.203125 756.515625 378.074219 756.515625 395.507812 C 756.515625 412.9375 767.691406 427.8125 783.257812 433.328125 L 783.257812 464.652344 C 767.691406 470.167969 756.515625 485.042969 756.515625 502.472656 C 756.515625 519.902344 767.691406 534.777344 783.257812 540.292969 L 783.257812 571.617188 C 767.691406 577.132812 756.515625 592.007812 756.515625 609.4375 C 756.515625 626.871094 767.691406 641.742188 783.257812 647.257812 L 783.257812 678.582031 C 767.691406 684.101562 756.515625 698.972656 756.515625 716.402344 C 756.515625 733.835938 767.691406 748.707031 783.257812 754.222656 L 783.257812 783.257812 L 754.222656 783.257812 C 748.707031 767.691406 733.835938 756.515625 716.402344 756.515625 C 698.972656 756.515625 684.101562 767.691406 678.582031 783.257812 L 647.257812 783.257812 C 641.742188 767.691406 626.871094 756.515625 609.4375 756.515625 C 592.007812 756.515625 577.132812 767.691406 571.617188 783.257812 L 540.292969 783.257812 C 534.777344 767.691406 519.902344 756.515625 502.472656 756.515625 C 485.042969 756.515625 470.167969 767.691406 464.652344 783.257812 L 433.328125 783.257812 C 427.8125 767.691406 412.9375 756.515625 395.507812 756.515625 C 378.074219 756.515625 363.203125 767.691406 357.6875 783.257812 L 328.652344 783.257812 L 328.652344 754.222656 C 344.21875 748.707031 355.394531 733.835938 355.394531 716.402344 C 355.394531 698.972656 344.21875 684.101562 328.652344 678.582031 L 328.652344 647.257812 C 344.21875 641.742188 355.394531 626.871094 355.394531 609.4375 C 355.394531 592.007812 344.21875 577.132812 328.652344 571.617188 L 328.652344 540.292969 C 344.21875 534.777344 355.394531 519.902344 355.394531 502.472656 C 355.394531 485.042969 344.21875 470.167969 328.652344 464.652344 L 328.652344 433.328125 C 344.21875 427.8125 355.394531 412.9375 355.394531 395.507812 C 355.394531 378.074219 344.21875 363.203125 328.652344 357.6875 L 328.652344 326.363281 C 344.21875 320.84375 355.394531 305.972656 355.394531 288.542969 C 355.394531 271.109375 344.21875 256.238281 328.652344 250.722656 L 328.652344 221.6875 L 357.6875 221.6875 C 363.203125 237.253906 378.074219 248.429688 395.507812 248.429688 C 412.9375 248.429688 427.8125 237.253906 433.328125 221.6875 L 464.652344 221.6875 C 470.167969 237.253906 485.042969 248.429688 502.472656 248.429688 C 519.902344 248.429688 534.777344 237.253906 540.292969 221.6875 L 571.617188 221.6875 C 577.132812 237.253906 592.007812 248.429688 609.4375 248.429688 C 626.871094 248.429688 641.742188 237.253906 647.257812 221.6875 L 678.582031 221.6875 C 684.101562 237.253906 698.972656 248.429688 716.402344 248.429688 C 733.835938 248.429688 748.707031 237.253906 754.222656 221.6875 L 783.257812 221.6875 Z M 315.28125 301.914062 C 307.898438 301.914062 301.914062 307.898438 301.914062 315.28125 L 301.914062 359.917969 C 285.277344 370.605469 269.335938 377.878906 261.734375 381.105469 C 231.742188 368.679688 168.207031 333.121094 168.207031 288.542969 C 168.207031 266.421875 186.199219 248.429688 208.316406 248.429688 C 230.4375 248.429688 248.429688 266.421875 248.429688 288.542969 C 248.429688 295.925781 254.417969 301.914062 261.800781 301.914062 C 269.183594 301.914062 275.171875 295.925781 275.171875 288.542969 C 275.171875 271.109375 286.347656 256.25 301.914062 250.726562 L 301.914062 261.800781 C 301.914062 269.183594 307.898438 275.171875 315.28125 275.171875 C 322.652344 275.171875 328.652344 281.171875 328.652344 288.542969 C 328.652344 295.914062 322.652344 301.914062 315.28125 301.914062 Z M 315.28125 515.84375 L 114.722656 515.84375 L 114.722656 114.722656 L 408.878906 114.722656 L 408.878906 208.316406 C 408.878906 215.6875 402.878906 221.6875 395.507812 221.6875 C 388.136719 221.6875 382.136719 215.6875 382.136719 208.316406 C 382.136719 200.933594 376.148438 194.945312 368.765625 194.945312 L 315.28125 194.945312 C 307.898438 194.945312 301.914062 200.933594 301.914062 208.316406 L 301.914062 223.058594 C 285.617188 226.382812 271.449219 235.625 261.800781 248.46875 C 249.589844 232.21875 230.164062 221.6875 208.316406 221.6875 C 171.457031 221.6875 141.464844 251.679688 141.464844 288.542969 C 141.464844 363.796875 252.386719 406.253906 257.105469 408.027344 C 258.621094 408.589844 260.207031 408.878906 261.800781 408.878906 C 263.394531 408.878906 264.980469 408.589844 266.492188 408.027344 C 267.566406 407.625 291.160156 398.6875 316.691406 382.214844 C 323.40625 382.917969 328.652344 388.613281 328.652344 395.507812 C 328.652344 402.878906 322.652344 408.878906 315.28125 408.878906 C 307.898438 408.878906 301.914062 414.863281 301.914062 422.25 L 301.914062 475.730469 C 301.914062 483.113281 307.898438 489.101562 315.28125 489.101562 C 322.652344 489.101562 328.652344 495.101562 328.652344 502.472656 C 328.652344 509.84375 322.652344 515.84375 315.28125 515.84375 Z M 277.457031 596.066406 L 246.136719 596.066406 C 240.621094 580.503906 225.75 569.328125 208.316406 569.328125 C 190.886719 569.328125 176.011719 580.503906 170.496094 596.066406 L 139.171875 596.066406 C 133.65625 580.503906 118.78125 569.328125 101.351562 569.328125 C 83.921875 569.328125 69.046875 580.503906 63.53125 596.066406 L 34.5 596.066406 L 34.5 567.035156 C 50.0625 561.519531 61.238281 546.644531 61.238281 529.214844 C 61.238281 511.78125 50.0625 496.910156 34.5 491.394531 L 34.5 460.070312 C 50.0625 454.550781 61.238281 439.679688 61.238281 422.25 C 61.238281 404.816406 50.0625 389.945312 34.5 384.429688 L 34.5 353.101562 C 50.0625 347.585938 61.238281 332.714844 61.238281 315.28125 C 61.238281 297.851562 50.0625 282.980469 34.5 277.460938 L 34.5 246.136719 C 50.0625 240.621094 61.238281 225.75 61.238281 208.316406 C 61.238281 190.886719 50.0625 176.011719 34.5 170.496094 L 34.5 139.171875 C 50.0625 133.65625 61.238281 118.78125 61.238281 101.351562 C 61.238281 83.921875 50.0625 69.046875 34.5 63.53125 L 34.5 34.5 L 63.53125 34.5 C 69.046875 50.0625 83.921875 61.238281 101.351562 61.238281 C 118.78125 61.238281 133.65625 50.0625 139.171875 34.5 L 170.496094 34.5 C 176.011719 50.0625 190.886719 61.238281 208.316406 61.238281 C 225.75 61.238281 240.621094 50.0625 246.136719 34.5 L 277.460938 34.5 C 282.980469 50.0625 297.851562 61.238281 315.28125 61.238281 C 332.714844 61.238281 347.585938 50.0625 353.101562 34.5 L 384.429688 34.5 C 389.945312 50.0625 404.816406 61.238281 422.25 61.238281 C 439.679688 61.238281 454.550781 50.0625 460.070312 34.5 L 489.101562 34.5 L 489.101562 63.53125 C 473.539062 69.046875 462.359375 83.921875 462.359375 101.351562 C 462.359375 118.78125 473.539062 133.65625 489.101562 139.171875 L 489.101562 170.496094 C 477.722656 174.53125 468.71875 183.574219 464.679688 194.945312 L 435.621094 194.945312 L 435.621094 101.351562 C 435.621094 93.96875 429.632812 87.980469 422.25 87.980469 L 101.351562 87.980469 C 93.96875 87.980469 87.980469 93.96875 87.980469 101.351562 L 87.980469 529.214844 C 87.980469 536.597656 93.96875 542.585938 101.351562 542.585938 L 301.914062 542.585938 L 301.914062 571.625 C 290.332031 575.710938 281.4375 584.804688 277.457031 596.066406 Z M 796.628906 194.945312 L 743.144531 194.945312 C 735.761719 194.945312 729.773438 200.933594 729.773438 208.316406 C 729.773438 215.6875 723.773438 221.6875 716.402344 221.6875 C 709.03125 221.6875 703.03125 215.6875 703.03125 208.316406 C 703.03125 200.933594 697.046875 194.945312 689.664062 194.945312 L 636.179688 194.945312 C 628.796875 194.945312 622.808594 200.933594 622.808594 208.316406 C 622.808594 215.6875 616.808594 221.6875 609.4375 221.6875 C 602.066406 221.6875 596.066406 215.6875 596.066406 208.316406 C 596.066406 200.933594 590.082031 194.945312 582.695312 194.945312 L 529.214844 194.945312 C 521.832031 194.945312 515.84375 200.933594 515.84375 208.316406 C 515.84375 215.6875 509.84375 221.6875 502.472656 221.6875 C 495.101562 221.6875 489.101562 215.6875 489.101562 208.316406 C 489.101562 200.945312 495.101562 194.945312 502.472656 194.945312 C 509.855469 194.945312 515.84375 188.960938 515.84375 181.574219 L 515.84375 128.09375 C 515.84375 120.710938 509.855469 114.722656 502.472656 114.722656 C 495.101562 114.722656 489.101562 108.722656 489.101562 101.351562 C 489.101562 93.980469 495.101562 87.980469 502.472656 87.980469 C 509.855469 87.980469 515.84375 81.992188 515.84375 74.609375 L 515.84375 21.128906 C 515.84375 13.742188 509.855469 7.757812 502.472656 7.757812 L 448.988281 7.757812 C 441.605469 7.757812 435.621094 13.742188 435.621094 21.128906 C 435.621094 28.5 429.621094 34.5 422.25 34.5 C 414.878906 34.5 408.878906 28.5 408.878906 21.128906 C 408.878906 13.742188 402.890625 7.757812 395.507812 7.757812 L 342.023438 7.757812 C 334.640625 7.757812 328.652344 13.742188 328.652344 21.128906 C 328.652344 28.5 322.652344 34.5 315.28125 34.5 C 307.910156 34.5 301.914062 28.5 301.914062 21.128906 C 301.914062 13.742188 295.925781 7.757812 288.542969 7.757812 L 235.058594 7.757812 C 227.675781 7.757812 221.6875 13.742188 221.6875 21.128906 C 221.6875 28.5 215.6875 34.5 208.316406 34.5 C 200.945312 34.5 194.945312 28.5 194.945312 21.128906 C 194.945312 13.742188 188.960938 7.757812 181.574219 7.757812 L 128.09375 7.757812 C 120.710938 7.757812 114.722656 13.742188 114.722656 21.128906 C 114.722656 28.5 108.722656 34.5 101.351562 34.5 C 93.980469 34.5 87.980469 28.5 87.980469 21.128906 C 87.980469 13.742188 81.992188 7.757812 74.609375 7.757812 L 21.128906 7.757812 C 13.742188 7.757812 7.757812 13.742188 7.757812 21.128906 L 7.757812 74.609375 C 7.757812 81.992188 13.742188 87.980469 21.128906 87.980469 C 28.5 87.980469 34.5 93.980469 34.5 101.351562 C 34.5 108.722656 28.5 114.722656 21.128906 114.722656 C 13.742188 114.722656 7.757812 120.710938 7.757812 128.09375 L 7.757812 181.574219 C 7.757812 188.960938 13.742188 194.945312 21.128906 194.945312 C 28.5 194.945312 34.5 200.945312 34.5 208.316406 C 34.5 215.6875 28.5 221.6875 21.128906 221.6875 C 13.742188 221.6875 7.757812 227.675781 7.757812 235.058594 L 7.757812 288.542969 C 7.757812 295.925781 13.742188 301.914062 21.128906 301.914062 C 28.5 301.914062 34.5 307.910156 34.5 315.28125 C 34.5 322.652344 28.5 328.652344 21.128906 328.652344 C 13.742188 328.652344 7.757812 334.640625 7.757812 342.023438 L 7.757812 395.507812 C 7.757812 402.890625 13.742188 408.878906 21.128906 408.878906 C 28.5 408.878906 34.5 414.878906 34.5 422.25 C 34.5 429.621094 28.5 435.621094 21.128906 435.621094 C 13.742188 435.621094 7.757812 441.605469 7.757812 448.988281 L 7.757812 502.472656 C 7.757812 509.855469 13.742188 515.84375 21.128906 515.84375 C 28.5 515.84375 34.5 521.84375 34.5 529.214844 C 34.5 536.585938 28.5 542.585938 21.128906 542.585938 C 13.742188 542.585938 7.757812 548.570312 7.757812 555.957031 L 7.757812 609.4375 C 7.757812 616.820312 13.742188 622.808594 21.128906 622.808594 L 74.609375 622.808594 C 81.992188 622.808594 87.980469 616.820312 87.980469 609.4375 C 87.980469 602.066406 93.980469 596.066406 101.351562 596.066406 C 108.722656 596.066406 114.722656 602.066406 114.722656 609.4375 C 114.722656 616.820312 120.710938 622.808594 128.09375 622.808594 L 181.574219 622.808594 C 188.960938 622.808594 194.945312 616.820312 194.945312 609.4375 C 194.945312 602.066406 200.945312 596.066406 208.316406 596.066406 C 215.6875 596.066406 221.6875 602.066406 221.6875 609.4375 C 221.6875 616.820312 227.675781 622.808594 235.058594 622.808594 L 288.542969 622.808594 C 295.925781 622.808594 301.914062 616.820312 301.914062 609.4375 C 301.914062 603.335938 306.03125 598 311.933594 596.480469 L 311.699219 595.566406 C 312.839844 595.886719 314.042969 596.066406 315.28125 596.066406 C 322.652344 596.066406 328.652344 602.066406 328.652344 609.4375 C 328.652344 616.808594 322.652344 622.808594 315.28125 622.808594 C 307.898438 622.808594 301.914062 628.796875 301.914062 636.179688 L 301.914062 689.664062 C 301.914062 697.046875 307.898438 703.03125 315.28125 703.03125 C 322.652344 703.03125 328.652344 709.03125 328.652344 716.402344 C 328.652344 723.773438 322.652344 729.773438 315.28125 729.773438 C 307.898438 729.773438 301.914062 735.761719 301.914062 743.144531 L 301.914062 796.628906 C 301.914062 804.011719 307.898438 810 315.28125 810 L 368.765625 810 C 376.148438 810 382.136719 804.011719 382.136719 796.628906 C 382.136719 789.257812 388.136719 783.257812 395.507812 783.257812 C 402.878906 783.257812 408.878906 789.257812 408.878906 796.628906 C 408.878906 804.011719 414.863281 810 422.25 810 L 475.730469 810 C 483.113281 810 489.101562 804.011719 489.101562 796.628906 C 489.101562 789.257812 495.101562 783.257812 502.472656 783.257812 C 509.84375 783.257812 515.84375 789.257812 515.84375 796.628906 C 515.84375 804.011719 521.832031 810 529.214844 810 L 582.695312 810 C 590.082031 810 596.066406 804.011719 596.066406 796.628906 C 596.066406 789.257812 602.066406 783.257812 609.4375 783.257812 C 616.808594 783.257812 622.808594 789.257812 622.808594 796.628906 C 622.808594 804.011719 628.796875 810 636.179688 810 L 689.664062 810 C 697.046875 810 703.03125 804.011719 703.03125 796.628906 C 703.03125 789.257812 709.03125 783.257812 716.402344 783.257812 C 723.773438 783.257812 729.773438 789.257812 729.773438 796.628906 C 729.773438 804.011719 735.761719 810 743.144531 810 L 796.628906 810 C 804.011719 810 810 804.011719 810 796.628906 L 810 743.144531 C 810 735.761719 804.011719 729.773438 796.628906 729.773438 C 789.257812 729.773438 783.257812 723.773438 783.257812 716.402344 C 783.257812 709.03125 789.257812 703.03125 796.628906 703.03125 C 804.011719 703.03125 810 697.046875 810 689.664062 L 810 636.179688 C 810 628.796875 804.011719 622.808594 796.628906 622.808594 C 789.257812 622.808594 783.257812 616.808594 783.257812 609.4375 C 783.257812 602.066406 789.257812 596.066406 796.628906 596.066406 C 804.011719 596.066406 810 590.082031 810 582.695312 L 810 529.214844 C 810 521.832031 804.011719 515.84375 796.628906 515.84375 C 789.257812 515.84375 783.257812 509.84375 783.257812 502.472656 C 783.257812 495.101562 789.257812 489.101562 796.628906 489.101562 C 804.011719 489.101562 810 483.113281 810 475.730469 L 810 422.25 C 810 414.863281 804.011719 408.878906 796.628906 408.878906 C 789.257812 408.878906 783.257812 402.878906 783.257812 395.507812 C 783.257812 388.136719 789.257812 382.136719 796.628906 382.136719 C 804.011719 382.136719 810 376.148438 810 368.765625 L 810 315.28125 C 810 307.898438 804.011719 301.914062 796.628906 301.914062 C 789.257812 301.914062 783.257812 295.914062 783.257812 288.542969 C 783.257812 281.171875 789.257812 275.171875 796.628906 275.171875 C 804.011719 275.171875 810 269.183594 810 261.800781 L 810 208.316406 C 810 200.933594 804.011719 194.945312 796.628906 194.945312 " fill-opacity="1" fill-rule="nonzero"/></g><path fill="#c6a619" d="M 456.171875 703.03125 L 623.1875 547.148438 L 703.03125 615.589844 L 703.03125 703.03125 Z M 408.878906 614.972656 L 448.988281 574.863281 L 499.828125 625.703125 L 416.980469 703.03125 L 408.878906 703.03125 Z M 703.03125 301.914062 L 703.03125 580.367188 L 631.511719 519.0625 C 626.339844 514.628906 618.664062 514.792969 613.683594 519.441406 L 519.386719 607.445312 L 458.441406 546.503906 C 453.21875 541.277344 444.757812 541.277344 439.535156 546.503906 L 408.878906 577.160156 L 408.878906 301.914062 Z M 716.402344 275.171875 L 395.507812 275.171875 C 388.125 275.171875 382.136719 281.15625 382.136719 288.542969 L 382.136719 716.402344 C 382.136719 723.789062 388.125 729.773438 395.507812 729.773438 L 716.402344 729.773438 C 723.789062 729.773438 729.773438 723.789062 729.773438 716.402344 L 729.773438 288.542969 C 729.773438 281.15625 723.789062 275.171875 716.402344 275.171875 " fill-opacity="1" fill-rule="nonzero"/><path fill="#c6a619" d="M 596.066406 382.136719 C 610.808594 382.136719 622.808594 394.136719 622.808594 408.878906 C 622.808594 423.621094 610.808594 435.621094 596.066406 435.621094 C 581.324219 435.621094 569.324219 423.621094 569.324219 408.878906 C 569.324219 394.136719 581.324219 382.136719 596.066406 382.136719 Z M 596.066406 462.359375 C 625.558594 462.359375 649.550781 438.367188 649.550781 408.878906 C 649.550781 379.386719 625.558594 355.394531 596.066406 355.394531 C 566.578125 355.394531 542.585938 379.386719 542.585938 408.878906 C 542.585938 438.367188 566.578125 462.359375 596.066406 462.359375 " fill-opacity="1" fill-rule="nonzero"/></svg>